<svg width="1078" height="720" xmlns="http://www.w3.org/2000/svg" xmlns:xlink="http://www.w3.org/1999/xlink"
  overflow="hidden">
  <defs>
    <clipPath id="clip0">
      <rect x="100" y="-1" width="1078" height="720" />
    </clipPath>
  </defs>
  <g clip-path="url(#clip0)" transform="translate(-100 1)">
    <path
      d="M1178 366.5 1145.5 339.327 1141.3 333.933 1131.3 330.336 1127.5 325.541 1102.1 304.162 1097.3 301.765 1075.1 281.785 1069.5 277.589 1063.7 270.796 1050.5 262.404 1046.1 258.009 1043.3 250.616 1030.7 238.428 1027.1 232.434 1017.1 223.243 1000.5 200.866 991.7 191.275 983.3 178.688 980.5 176.49 976.5 166.5 976.5 166.5 976.5 166.5 969.705 159.9 964.31 155.1 960.313 145.9 956.316 142.9 952.719 143.1 950.321 144.3 945.325 143.3 942.927 142.5 938.73 144.3 936.332 145.5 933.534 144.5 931.336 143.9 928.538 144.7 926.939 146.5 923.542 146.3 920.944 144.9 918.746 144.1 915.348 145.7 913.55 144.3 910.152 143.5 908.354 144.3 904.557 149.7 902.358 151.1 897.562 157.3 891.967 161.7 890.368 165.3 882.374 174.3 861.191 197.5 856.195 199.9 850.399 205.1 844.604 211.5 842.406 214.5 834.412 218.1 817.625 238.9 812.229 243.1 806.634 244.9 805.635 246.5 786.25 264.7 782.253 265.7 775.858 274.3 770.063 279.9 763.068 287.3 757.473 291.5 752.876 297.7 750.878 300.7 738.487 310.3 728.695 314.1 725.498 318.1 722.5 322.5 722.5 322.5 716.312 330.488 712.919 333.484 703.338 338.277 696.751 345.865 692.56 349.86 684.576 354.453 627.689 397.589 617.11 401.783 610.523 403.58 604.335 410.37 597.15 416.96 584.375 423.95 574.395 428.343 564.015 437.53 542.658 445.518 537.668 449.712 533.277 452.707 521.5 457.5 520.5 457.5 486.149 474.165 464.58 485.408 441.214 494.242 424.038 503.277 397.676 512.111 382.498 520.343 373.511 523.556 344.352 531.788 337.362 531.788 323.183 539.417 317.99 544.637 303.411 551.464 290.23 553.472 273.853 557.086 260.672 560.9 246.892 565.719 236.706 566.121 228.518 565.117 218.333 568.53 215.936 571.14 198.361 579.171 189.973 585.596 164.61 594.229 158.618 593.627 150.829 594.832 140.245 598.446 129.061 602.06 118.675 606.276 110.487 608.685 103.297 611.697 100 612.5 100 -1 1178 -1 1178 719 100 719 100 612.5"
      stroke="#2F528F" stroke-width="1.33333" stroke-miterlimit="8" fill="none" fill-rule="evenodd" />
  </g>
</svg>